#usda 1.0
(
    defaultPrim = "World"
    metersPerUnit = 0.549999987706542
    subLayers = [
        @./kitchen_scene_1.usd@
    ]
    upAxis = "Z"
)

over "World"
{
    over "plate_small" (
        active = false
    )
    {
    }

    over "SM_Crate_A07_Yellow_01_physics" (
        active = false
    )
    {
    }

    def Cube "object" (
        prepend apiSchemas = ["PhysicsCollisionAPI", "PhysicsRigidBodyAPI", "PhysicsMassAPI"]
    )
    {
        float physics:mass = 0.05
        color3f[] primvars:displayColor = [(0.85, 0.2, 0.15)]
        double size = 0.06
        double3 xformOp:translate = (0.527, -0.405, 1.85)
        uniform token[] xformOpOrder = ["xformOp:translate"]
    }

    def Mesh "bowl" (
        prepend apiSchemas = ["PhysicsCollisionAPI", "PhysicsMeshCollisionAPI"]
    )
    {
        uniform bool doubleSided = 1
        int[] faceVertexCounts = [4, 4, 4, 3, 3, 4, 4, 4, 3, 3, 4, 4, 4, 3, 3, 4, 4, 4, 3, 3, 4, 4, 4, 3, 3, 4, 4, 4, 3, 3, 4, 4, 4, 3, 3, 4, 4, 4, 3, 3, 4, 4, 4, 3, 3, 4, 4, 4, 3, 3, 4, 4, 4, 3, 3, 4, 4, 4, 3, 3, 4, 4, 4, 3, 3, 4, 4, 4, 3, 3, 4, 4, 4, 3, 3, 4, 4, 4, 3, 3, 4, 4, 4, 3, 3, 4, 4, 4, 3, 3, 4, 4, 4, 3, 3, 4, 4, 4, 3, 3, 4, 4, 4, 3, 3, 4, 4, 4, 3, 3, 4, 4, 4, 3, 3, 4, 4, 4, 3, 3]
        int[] faceVertexIndices = [0, 1, 25, 24, 24, 25, 49, 48, 48, 49, 73, 72, 97, 73, 72, 96, 0, 1, 1, 2, 26, 25, 25, 26, 50, 49, 49, 50, 74, 73, 97, 74, 73, 96, 1, 2, 2, 3, 27, 26, 26, 27, 51, 50, 50, 51, 75, 74, 97, 75, 74, 96, 2, 3, 3, 4, 28, 27, 27, 28, 52, 51, 51, 52, 76, 75, 97, 76, 75, 96, 3, 4, 4, 5, 29, 28, 28, 29, 53, 52, 52, 53, 77, 76, 97, 77, 76, 96, 4, 5, 5, 6, 30, 29, 29, 30, 54, 53, 53, 54, 78, 77, 97, 78, 77, 96, 5, 6, 6, 7, 31, 30, 30, 31, 55, 54, 54, 55, 79, 78, 97, 79, 78, 96, 6, 7, 7, 8, 32, 31, 31, 32, 56, 55, 55, 56, 80, 79, 97, 80, 79, 96, 7, 8, 8, 9, 33, 32, 32, 33, 57, 56, 56, 57, 81, 80, 97, 81, 80, 96, 8, 9, 9, 10, 34, 33, 33, 34, 58, 57, 57, 58, 82, 81, 97, 82, 81, 96, 9, 10, 10, 11, 35, 34, 34, 35, 59, 58, 58, 59, 83, 82, 97, 83, 82, 96, 10, 11, 11, 12, 36, 35, 35, 36, 60, 59, 59, 60, 84, 83, 97, 84, 83, 96, 11, 12, 12, 13, 37, 36, 36, 37, 61, 60, 60, 61, 85, 84, 97, 85, 84, 96, 12, 13, 13, 14, 38, 37, 37, 38, 62, 61, 61, 62, 86, 85, 97, 86, 85, 96, 13, 14, 14, 15, 39, 38, 38, 39, 63, 62, 62, 63, 87, 86, 97, 87, 86, 96, 14, 15, 15, 16, 40, 39, 39, 40, 64, 63, 63, 64, 88, 87, 97, 88, 87, 96, 15, 16, 16, 17, 41, 40, 40, 41, 65, 64, 64, 65, 89, 88, 97, 89, 88, 96, 16, 17, 17, 18, 42, 41, 41, 42, 66, 65, 65, 66, 90, 89, 97, 90, 89, 96, 17, 18, 18, 19, 43, 42, 42, 43, 67, 66, 66, 67, 91, 90, 97, 91, 90, 96, 18, 19, 19, 20, 44, 43, 43, 44, 68, 67, 67, 68, 92, 91, 97, 92, 91, 96, 19, 20, 20, 21, 45, 44, 44, 45, 69, 68, 68, 69, 93, 92, 97, 93, 92, 96, 20, 21, 21, 22, 46, 45, 45, 46, 70, 69, 69, 70, 94, 93, 97, 94, 93, 96, 21, 22, 22, 23, 47, 46, 46, 47, 71, 70, 70, 71, 95, 94, 97, 95, 94, 96, 22, 23, 23, 0, 24, 47, 47, 24, 48, 71, 71, 48, 72, 95, 97, 72, 95, 96, 23, 0]
        uniform token physics:approximation = "none"
        point3f[] points = [(0.1, 0, 0), (0.09659258, 0.025881905, 0), (0.08660254, 0.05, 0), (0.07071068, 0.07071068, 0), (0.05, 0.08660254, 0), (0.025881905, 0.09659258, 0), (6.123234e-18, 0.1, 0), (-0.025881905, 0.09659258, 0), (-0.05, 0.08660254, 0), (-0.07071068, 0.07071068, 0), (-0.08660254, 0.05, 0), (-0.09659258, 0.025881905, 0), (-0.1, 1.2246468e-17, 0), (-0.09659258, -0.025881905, 0), (-0.08660254, -0.05, 0), (-0.07071068, -0.07071068, 0), (-0.05, -0.08660254, 0), (-0.025881905, -0.09659258, 0), (-1.8369703e-17, -0.1, 0), (0.025881905, -0.09659258, 0), (0.05, -0.08660254, 0), (0.07071068, -0.07071068, 0), (0.08660254, -0.05, 0), (0.09659258, -0.025881905, 0), (0.18, 0, 0.13), (0.17386664, 0.04658743, 0.13), (0.15588458, 0.09, 0.13), (0.12727922, 0.12727922, 0.13), (0.09, 0.15588458, 0.13), (0.04658743, 0.17386664, 0.13), (1.1021821e-17, 0.18, 0.13), (-0.04658743, 0.17386664, 0.13), (-0.09, 0.15588458, 0.13), (-0.12727922, 0.12727922, 0.13), (-0.15588458, 0.09, 0.13), (-0.17386664, 0.04658743, 0.13), (-0.18, 2.2043642e-17, 0.13), (-0.17386664, -0.04658743, 0.13), (-0.15588458, -0.09, 0.13), (-0.12727922, -0.12727922, 0.13), (-0.09, -0.15588458, 0.13), (-0.04658743, -0.17386664, 0.13), (-3.3065463e-17, -0.18, 0.13), (0.04658743, -0.17386664, 0.13), (0.09, -0.15588458, 0.13), (0.12727922, -0.12727922, 0.13), (0.15588458, -0.09, 0.13), (0.17386664, -0.04658743, 0.13), (0.155, 0, 0.13), (0.14971851, 0.04011695, 0.13), (0.13423394, 0.0775, 0.13), (0.10960155, 0.10960155, 0.13), (0.0775, 0.13423394, 0.13), (0.04011695, 0.14971851, 0.13), (9.4910124e-18, 0.155, 0.13), (-0.04011695, 0.14971851, 0.13), (-0.0775, 0.13423394, 0.13), (-0.10960155, 0.10960155, 0.13), (-0.13423394, 0.0775, 0.13), (-0.14971851, 0.04011695, 0.13), (-0.155, 1.8982025e-17, 0.13), (-0.14971851, -0.04011695, 0.13), (-0.13423394, -0.0775, 0.13), (-0.10960155, -0.10960155, 0.13), (-0.0775, -0.13423394, 0.13), (-0.04011695, -0.14971851, 0.13), (-2.847304e-17, -0.155, 0.13), (0.04011695, -0.14971851, 0.13), (0.0775, -0.13423394, 0.13), (0.10960155, -0.10960155, 0.13), (0.13423394, -0.0775, 0.13), (0.14971851, -0.04011695, 0.13), (0.075, 0, 0.025), (0.07244444, 0.019411428, 0.025), (0.064951904, 0.0375, 0.025), (0.05303301, 0.05303301, 0.025), (0.0375, 0.064951904, 0.025), (0.019411428, 0.07244444, 0.025), (4.5924257e-18, 0.075, 0.025), (-0.019411428, 0.07244444, 0.025), (-0.0375, 0.064951904, 0.025), (-0.05303301, 0.05303301, 0.025), (-0.064951904, 0.0375, 0.025), (-0.07244444, 0.019411428, 0.025), (-0.075, 9.184851e-18, 0.025), (-0.07244444, -0.019411428, 0.025), (-0.064951904, -0.0375, 0.025), (-0.05303301, -0.05303301, 0.025), (-0.0375, -0.064951904, 0.025), (-0.019411428, -0.07244444, 0.025), (-1.3777276e-17, -0.075, 0.025), (0.019411428, -0.07244444, 0.025), (0.0375, -0.064951904, 0.025), (0.05303301, -0.05303301, 0.025), (0.064951904, -0.0375, 0.025), (0.07244444, -0.019411428, 0.025), (0, 0, 0), (0, 0, 0.025)]
        color3f[] primvars:displayColor = [(0.85, 0.8, 0.7)]
        uniform token subdivisionScheme = "none"
        double3 xformOp:translate = (1.463, -0.02, 1.807)
        uniform token[] xformOpOrder = ["xformOp:translate"]
    }
}

