#usda 1.0
(
    defaultPrim = "World"
    metersPerUnit = 0.549999987706542
    upAxis = "Z"
)

def Xform "World"
{
    def Cube "Table" (
        prepend apiSchemas = ["MaterialBindingAPI"]
    )
    {
        rel material:binding = </World/Looks/Wood>
        color3f[] primvars:displayColor = [(0.4, 0.26, 0.13)]
        double size = 1
        float3 xformOp:scale = (2.5, 2, 0.2)
        double3 xformOp:translate = (0.7, 0, 1.707)
        uniform token[] xformOpOrder = ["xformOp:translate", "xformOp:scale"]
    }

    def "Looks"
    {
        def Material "Wood"
        {
            token outputs:surface.connect = </World/Looks/Wood/PBR.outputs:surface>

            def Shader "PBR"
            {
                uniform token info:id = "UsdPreviewSurface"
                color3f inputs:diffuseColor = (0.4, 0.26, 0.13)
                float inputs:metallic = 0
                float inputs:roughness = 0.8
                token outputs:surface
            }
        }

        def Material "Purple"
        {
            token outputs:surface.connect = </World/Looks/Purple/PBR.outputs:surface>

            def Shader "PBR"
            {
                uniform token info:id = "UsdPreviewSurface"
                color3f inputs:diffuseColor = (0.45, 0.22, 0.55)
                float inputs:metallic = 0
                float inputs:roughness = 0.5
                token outputs:surface
            }
        }

        def Material "Red"
        {
            token outputs:surface.connect = </World/Looks/Red/PBR.outputs:surface>

            def Shader "PBR"
            {
                uniform token info:id = "UsdPreviewSurface"
                color3f inputs:diffuseColor = (0.8, 0.15, 0.15)
                float inputs:metallic = 0
                float inputs:roughness = 0.5
                token outputs:surface
            }
        }
    }

    def Mesh "bowl" (
        prepend apiSchemas = ["MaterialBindingAPI"]
    )
    {
        uniform bool doubleSided = 1
        int[] faceVertexCounts = [4, 4, 4, 3, 3, 4, 4, 4, 3, 3, 4, 4, 4, 3, 3, 4, 4, 4, 3, 3, 4, 4, 4, 3, 3, 4, 4, 4, 3, 3, 4, 4, 4, 3, 3, 4, 4, 4, 3, 3, 4, 4, 4, 3, 3, 4, 4, 4, 3, 3, 4, 4, 4, 3, 3, 4, 4, 4, 3, 3, 4, 4, 4, 3, 3, 4, 4, 4, 3, 3, 4, 4, 4, 3, 3, 4, 4, 4, 3, 3, 4, 4, 4, 3, 3, 4, 4, 4, 3, 3, 4, 4, 4, 3, 3, 4, 4, 4, 3, 3, 4, 4, 4, 3, 3, 4, 4, 4, 3, 3, 4, 4, 4, 3, 3, 4, 4, 4, 3, 3, 4, 4, 4, 3, 3, 4, 4, 4, 3, 3, 4, 4, 4, 3, 3, 4, 4, 4, 3, 3, 4, 4, 4, 3, 3, 4, 4, 4, 3, 3, 4, 4, 4, 3, 3, 4, 4, 4, 3, 3]
        int[] faceVertexIndices = [0, 1, 33, 32, 32, 33, 65, 64, 64, 65, 97, 96, 129, 97, 96, 128, 0, 1, 1, 2, 34, 33, 33, 34, 66, 65, 65, 66, 98, 97, 129, 98, 97, 128, 1, 2, 2, 3, 35, 34, 34, 35, 67, 66, 66, 67, 99, 98, 129, 99, 98, 128, 2, 3, 3, 4, 36, 35, 35, 36, 68, 67, 67, 68, 100, 99, 129, 100, 99, 128, 3, 4, 4, 5, 37, 36, 36, 37, 69, 68, 68, 69, 101, 100, 129, 101, 100, 128, 4, 5, 5, 6, 38, 37, 37, 38, 70, 69, 69, 70, 102, 101, 129, 102, 101, 128, 5, 6, 6, 7, 39, 38, 38, 39, 71, 70, 70, 71, 103, 102, 129, 103, 102, 128, 6, 7, 7, 8, 40, 39, 39, 40, 72, 71, 71, 72, 104, 103, 129, 104, 103, 128, 7, 8, 8, 9, 41, 40, 40, 41, 73, 72, 72, 73, 105, 104, 129, 105, 104, 128, 8, 9, 9, 10, 42, 41, 41, 42, 74, 73, 73, 74, 106, 105, 129, 106, 105, 128, 9, 10, 10, 11, 43, 42, 42, 43, 75, 74, 74, 75, 107, 106, 129, 107, 106, 128, 10, 11, 11, 12, 44, 43, 43, 44, 76, 75, 75, 76, 108, 107, 129, 108, 107, 128, 11, 12, 12, 13, 45, 44, 44, 45, 77, 76, 76, 77, 109, 108, 129, 109, 108, 128, 12, 13, 13, 14, 46, 45, 45, 46, 78, 77, 77, 78, 110, 109, 129, 110, 109, 128, 13, 14, 14, 15, 47, 46, 46, 47, 79, 78, 78, 79, 111, 110, 129, 111, 110, 128, 14, 15, 15, 16, 48, 47, 47, 48, 80, 79, 79, 80, 112, 111, 129, 112, 111, 128, 15, 16, 16, 17, 49, 48, 48, 49, 81, 80, 80, 81, 113, 112, 129, 113, 112, 128, 16, 17, 17, 18, 50, 49, 49, 50, 82, 81, 81, 82, 114, 113, 129, 114, 113, 128, 17, 18, 18, 19, 51, 50, 50, 51, 83, 82, 82, 83, 115, 114, 129, 115, 114, 128, 18, 19, 19, 20, 52, 51, 51, 52, 84, 83, 83, 84, 116, 115, 129, 116, 115, 128, 19, 20, 20, 21, 53, 52, 52, 53, 85, 84, 84, 85, 117, 116, 129, 117, 116, 128, 20, 21, 21, 22, 54, 53, 53, 54, 86, 85, 85, 86, 118, 117, 129, 118, 117, 128, 21, 22, 22, 23, 55, 54, 54, 55, 87, 86, 86, 87, 119, 118, 129, 119, 118, 128, 22, 23, 23, 24, 56, 55, 55, 56, 88, 87, 87, 88, 120, 119, 129, 120, 119, 128, 23, 24, 24, 25, 57, 56, 56, 57, 89, 88, 88, 89, 121, 120, 129, 121, 120, 128, 24, 25, 25, 26, 58, 57, 57, 58, 90, 89, 89, 90, 122, 121, 129, 122, 121, 128, 25, 26, 26, 27, 59, 58, 58, 59, 91, 90, 90, 91, 123, 122, 129, 123, 122, 128, 26, 27, 27, 28, 60, 59, 59, 60, 92, 91, 91, 92, 124, 123, 129, 124, 123, 128, 27, 28, 28, 29, 61, 60, 60, 61, 93, 92, 92, 93, 125, 124, 129, 125, 124, 128, 28, 29, 29, 30, 62, 61, 61, 62, 94, 93, 93, 94, 126, 125, 129, 126, 125, 128, 29, 30, 30, 31, 63, 62, 62, 63, 95, 94, 94, 95, 127, 126, 129, 127, 126, 128, 30, 31, 31, 0, 32, 63, 63, 32, 64, 95, 95, 64, 96, 127, 129, 96, 127, 128, 31, 0]
        rel material:binding = </World/Looks/Purple>
        point3f[] points = [(0.1, 0, 0), (0.09807853, 0.019509032, 0), (0.09238795, 0.038268343, 0), (0.08314696, 0.055557024, 0), (0.07071068, 0.07071068, 0), (0.055557024, 0.08314696, 0), (0.038268343, 0.09238795, 0), (0.019509032, 0.09807853, 0), (6.123234e-18, 0.1, 0), (-0.019509032, 0.09807853, 0), (-0.038268343, 0.09238795, 0), (-0.055557024, 0.08314696, 0), (-0.07071068, 0.07071068, 0), (-0.08314696, 0.055557024, 0), (-0.09238795, 0.038268343, 0), (-0.09807853, 0.019509032, 0), (-0.1, 1.2246468e-17, 0), (-0.09807853, -0.019509032, 0), (-0.09238795, -0.038268343, 0), (-0.08314696, -0.055557024, 0), (-0.07071068, -0.07071068, 0), (-0.055557024, -0.08314696, 0), (-0.038268343, -0.09238795, 0), (-0.019509032, -0.09807853, 0), (-1.8369703e-17, -0.1, 0), (0.019509032, -0.09807853, 0), (0.038268343, -0.09238795, 0), (0.055557024, -0.08314696, 0), (0.07071068, -0.07071068, 0), (0.08314696, -0.055557024, 0), (0.09238795, -0.038268343, 0), (0.09807853, -0.019509032, 0), (0.18, 0, 0.13), (0.17654134, 0.03511626, 0.13), (0.16629831, 0.06888302, 0.13), (0.14966454, 0.10000264, 0.13), (0.12727922, 0.12727922, 0.13), (0.10000264, 0.14966454, 0.13), (0.06888302, 0.16629831, 0.13), (0.03511626, 0.17654134, 0.13), (1.1021821e-17, 0.18, 0.13), (-0.03511626, 0.17654134, 0.13), (-0.06888302, 0.16629831, 0.13), (-0.10000264, 0.14966454, 0.13), (-0.12727922, 0.12727922, 0.13), (-0.14966454, 0.10000264, 0.13), (-0.16629831, 0.06888302, 0.13), (-0.17654134, 0.03511626, 0.13), (-0.18, 2.2043642e-17, 0.13), (-0.17654134, -0.03511626, 0.13), (-0.16629831, -0.06888302, 0.13), (-0.14966454, -0.10000264, 0.13), (-0.12727922, -0.12727922, 0.13), (-0.10000264, -0.14966454, 0.13), (-0.06888302, -0.16629831, 0.13), (-0.03511626, -0.17654134, 0.13), (-3.3065463e-17, -0.18, 0.13), (0.03511626, -0.17654134, 0.13), (0.06888302, -0.16629831, 0.13), (0.10000264, -0.14966454, 0.13), (0.12727922, -0.12727922, 0.13), (0.14966454, -0.10000264, 0.13), (0.16629831, -0.06888302, 0.13), (0.17654134, -0.03511626, 0.13), (0.155, 0, 0.13), (0.15202172, 0.030238999, 0.13), (0.14320132, 0.05931593, 0.13), (0.12887779, 0.086113386, 0.13), (0.10960155, 0.10960155, 0.13), (0.086113386, 0.12887779, 0.13), (0.05931593, 0.14320132, 0.13), (0.030238999, 0.15202172, 0.13), (9.4910124e-18, 0.155, 0.13), (-0.030238999, 0.15202172, 0.13), (-0.05931593, 0.14320132, 0.13), (-0.086113386, 0.12887779, 0.13), (-0.10960155, 0.10960155, 0.13), (-0.12887779, 0.086113386, 0.13), (-0.14320132, 0.05931593, 0.13), (-0.15202172, 0.030238999, 0.13), (-0.155, 1.8982025e-17, 0.13), (-0.15202172, -0.030238999, 0.13), (-0.14320132, -0.05931593, 0.13), (-0.12887779, -0.086113386, 0.13), (-0.10960155, -0.10960155, 0.13), (-0.086113386, -0.12887779, 0.13), (-0.05931593, -0.14320132, 0.13), (-0.030238999, -0.15202172, 0.13), (-2.847304e-17, -0.155, 0.13), (0.030238999, -0.15202172, 0.13), (0.05931593, -0.14320132, 0.13), (0.086113386, -0.12887779, 0.13), (0.10960155, -0.10960155, 0.13), (0.12887779, -0.086113386, 0.13), (0.14320132, -0.05931593, 0.13), (0.15202172, -0.030238999, 0.13), (0.075, 0, 0.025), (0.0735589, 0.014631774, 0.025), (0.069290966, 0.028701257, 0.025), (0.06236022, 0.041667767, 0.025), (0.05303301, 0.05303301, 0.025), (0.041667767, 0.06236022, 0.025), (0.028701257, 0.069290966, 0.025), (0.014631774, 0.0735589, 0.025), (4.5924257e-18, 0.075, 0.025), (-0.014631774, 0.0735589, 0.025), (-0.028701257, 0.069290966, 0.025), (-0.041667767, 0.06236022, 0.025), (-0.05303301, 0.05303301, 0.025), (-0.06236022, 0.041667767, 0.025), (-0.069290966, 0.028701257, 0.025), (-0.0735589, 0.014631774, 0.025), (-0.075, 9.184851e-18, 0.025), (-0.0735589, -0.014631774, 0.025), (-0.069290966, -0.028701257, 0.025), (-0.06236022, -0.041667767, 0.025), (-0.05303301, -0.05303301, 0.025), (-0.041667767, -0.06236022, 0.025), (-0.028701257, -0.069290966, 0.025), (-0.014631774, -0.0735589, 0.025), (-1.3777276e-17, -0.075, 0.025), (0.014631774, -0.0735589, 0.025), (0.028701257, -0.069290966, 0.025), (0.041667767, -0.06236022, 0.025), (0.05303301, -0.05303301, 0.025), (0.06236022, -0.041667767, 0.025), (0.069290966, -0.028701257, 0.025), (0.0735589, -0.014631774, 0.025), (0, 0, 0), (0, 0, 0.025)]
        color3f[] primvars:displayColor = [(0.45, 0.22, 0.55)]
        uniform token subdivisionScheme = "none"
        double3 xformOp:translate = (1.463, -0.02, 1.807)
        uniform token[] xformOpOrder = ["xformOp:translate"]
    }

    def Sphere "object" (
        prepend apiSchemas = ["MaterialBindingAPI"]
    )
    {
        rel material:binding = </World/Looks/Red>
        color3f[] primvars:displayColor = [(0.8, 0.15, 0.15)]
        double radius = 0.04
        double3 xformOp:translate = (0.527, -0.405, 1.847)
        uniform token[] xformOpOrder = ["xformOp:translate"]
    }

    def DistantLight "Sun"
    {
        float inputs:intensity = 3000
    }
}

